<svg width="473" height="82" viewBox="0 0 473 82" version="1.1" xmlns="http://www.w3.org/2000/svg" xmlns:xlink="http://www.w3.org/1999/xlink">
<title>Group</title>
<desc>Created using Figma</desc>
<g id="Canvas" transform="translate(233 -26)">
<g id="Group">
<g id="navarro brewing">
<use xlink:href="#path0_fill" transform="translate(-234.925 47)" fill="#FFFFFF"/>
</g>
<g id="Group">
<g id="Vector">
<use xlink:href="#path1_fill" transform="matrix(1 3.36099e-16 -3.63046e-16 1 0.750001 39.6667)" fill="#85FFB7"/>
</g>
<g id="Vector">
<use xlink:href="#path2_fill" transform="matrix(1 3.36099e-16 -3.63046e-16 1 0.750001 26)" fill="#85FFB7"/>
</g>
<g id="Vector">
<use xlink:href="#path3_fill" transform="matrix(1 3.36099e-16 -3.63046e-16 1 -15 39.6667)" fill="#85FFB7"/>
</g>
<g id="Vector">
<use xlink:href="#path4_fill" transform="matrix(1 3.36099e-16 -3.63046e-16 1 0.750001 53.3333)" fill="#85FFB7"/>
</g>
<g id="Vector">
<use xlink:href="#path5_fill" transform="matrix(1 3.36099e-16 -3.63046e-16 1 -15 53.3333)" fill="#85FFB7"/>
</g>
<g id="Vector">
<use xlink:href="#path6_fill" transform="matrix(1 3.36099e-16 -3.63046e-16 1 0.750001 67)" fill="#85FFB7"/>
</g>
<g id="Vector">
<use xlink:href="#path7_fill" transform="matrix(1 3.36099e-16 -3.63046e-16 1 -15 67)" fill="#85FFB7"/>
</g>
<g id="Vector">
<use xlink:href="#path8_fill" transform="matrix(1 3.36099e-16 -3.63046e-16 1 -15 26)" fill="#85FFB7"/>
</g>
<g id="Vector">
<use xlink:href="#path9_fill" transform="matrix(1 3.36099e-16 -3.63046e-16 1 -15 80.6667)" fill="#85FFB7"/>
</g>
</g>
</g>
</g>
<defs>
<path id="path0_fill" d="M 12.1338 43.9258C 12.1338 44.528 11.084 44.8291 8.98438 44.8291L 6.73828 44.7559C 6.25 44.7396 5.51758 44.7314 4.54102 44.7314C 3.02734 44.7314 2.27051 44.3408 2.27051 43.5596C 2.27051 43.2992 2.67741 42.9736 3.49121 42.583C 4.32129 42.1924 4.83398 41.7611 5.0293 41.2891C 5.24089 40.8008 5.34668 39.4987 5.34668 37.3828L 5.34668 33.0859L 5.29785 31.5723L 5.29785 28.8135C 5.29785 27.4788 5.2002 26.5186 5.00488 25.9326C 4.82585 25.3304 4.37826 24.8421 3.66211 24.4678C 2.94596 24.0771 2.58789 23.8005 2.58789 23.6377C 2.58789 23.1494 2.84831 22.7832 3.36914 22.5391C 4.41081 22.0671 5.83496 21.8311 7.6416 21.8311C 8.56934 21.8311 9.2041 22.1891 9.5459 22.9053C 10.0993 24.0283 10.4085 24.5898 10.4736 24.5898C 10.5225 24.5898 10.8724 24.362 11.5234 23.9062C 13.7858 22.2786 15.8285 21.4567 17.6514 21.4404L 18.4082 21.4404C 21.3053 21.4567 23.3398 22.7181 24.5117 25.2246C 25.0977 26.4941 25.3906 30.2295 25.3906 36.4307C 25.3906 39.458 25.4964 41.1833 25.708 41.6064C 25.9359 42.0296 26.4648 42.4365 27.2949 42.8271C 28.1413 43.2178 28.5645 43.5596 28.5645 43.8525C 28.5645 44.5361 26.3346 44.8779 21.875 44.8779L 21.1426 44.8779C 19.7103 44.8779 18.9941 44.6582 18.9941 44.2188C 18.9941 43.7793 19.2464 43.3236 19.751 42.8516C 20.2555 42.3796 20.5566 42.0052 20.6543 41.7285C 20.7682 41.4518 20.8252 40.7845 20.8252 39.7266C 20.8252 38.6686 20.8171 37.8874 20.8008 37.3828L 20.752 35.8691L 20.752 32.7197C 20.752 29.3669 20.4102 27.1208 19.7266 25.9814C 19.0592 24.8258 17.8467 24.248 16.0889 24.248C 15.21 24.248 14.2822 24.5085 13.3057 25.0293C 12.3291 25.5339 11.5397 26.2093 10.9375 27.0557C 10.3353 27.902 10.0342 30.0505 10.0342 33.501L 9.8877 38.0908C 9.8877 39.6533 10.0016 40.7357 10.2295 41.3379C 10.4574 41.9238 10.8317 42.4528 11.3525 42.9248C 11.8734 43.3968 12.1338 43.7305 12.1338 43.9258ZM 43.8232 33.7207C 41.7074 33.7207 39.9902 34.2334 38.6719 35.2588C 37.3535 36.2842 36.6943 37.3991 36.6943 38.6035L 36.6943 39.4336C 36.7269 39.6289 36.7432 39.7917 36.7432 39.9219C 36.7432 40.7031 37.085 41.3623 37.7686 41.8994C 38.4684 42.4365 39.1602 42.7051 39.8438 42.7051L 40.625 42.7051C 41.6992 42.7051 42.9118 42.2331 44.2627 41.2891C 45.2393 40.6055 45.7275 39.7428 45.7275 38.7012C 45.7601 38.5059 45.7764 38.3594 45.7764 38.2617L 45.8252 37.627L 45.8252 36.8701L 45.8496 36.4062L 45.8496 34.7217C 45.8496 34.0055 45.638 33.6475 45.2148 33.6475L 44.6045 33.6475C 44.3115 33.6963 44.0511 33.7207 43.8232 33.7207ZM 41.748 21.2207L 42.3584 21.2207C 45.7601 21.2207 48.0876 22.2542 49.3408 24.3213C 50.1058 25.5908 50.4883 28.5368 50.4883 33.1592C 50.4883 37.7816 50.5534 40.3125 50.6836 40.752C 50.8952 41.4844 51.359 41.9727 52.0752 42.2168C 53.2471 42.6237 53.833 42.9004 53.833 43.0469L 53.833 43.4131C 53.833 43.7386 53.4587 44.1211 52.71 44.5605C 51.9613 45 50.8545 45.2197 49.3896 45.2197C 48.5433 45.2197 47.7783 44.8535 47.0947 44.1211C 46.4111 43.3724 45.9635 42.998 45.752 42.998C 45.7357 42.998 44.8324 43.4131 43.042 44.2432C 41.2516 45.0732 39.8438 45.4883 38.8184 45.4883L 37.6709 45.4883C 36.1084 45.4883 34.79 44.943 33.7158 43.8525C 32.6579 42.7458 32.1289 41.5495 32.1289 40.2637L 32.1289 39.6533C 32.1289 37.6025 32.902 35.9587 34.4482 34.7217C 35.5062 33.8753 37.028 33.1755 39.0137 32.6221C 39.2415 32.557 40.1367 32.3617 41.6992 32.0361C 43.2617 31.6943 44.2139 31.4421 44.5557 31.2793C 45.4508 30.8398 45.8984 29.8877 45.8984 28.4229C 45.8984 26.9417 45.4997 25.778 44.7021 24.9316C 43.9046 24.069 42.8141 23.6377 41.4307 23.6377C 40.0472 23.6377 38.8428 24.3945 37.8174 25.9082C 36.792 27.4219 35.7259 28.1787 34.6191 28.1787C 34.375 28.1787 34.0658 27.9997 33.6914 27.6416C 33.3171 27.2835 33.1299 26.722 33.1299 25.957C 33.1299 24.7689 33.7646 23.8005 35.0342 23.0518C 37.1012 21.8311 39.3392 21.2207 41.748 21.2207ZM 65.6982 22.7588C 65.6982 22.9867 65.5111 23.2715 65.1367 23.6133C 64.7624 23.9551 64.5752 24.3538 64.5752 24.8096C 64.5752 25.249 65.2344 27.4137 66.5527 31.3037C 67.8874 35.1937 68.7337 37.5456 69.0918 38.3594C 69.4661 39.1569 69.7917 39.5557 70.0684 39.5557C 70.1986 39.5557 70.6136 38.8151 71.3135 37.334C 74.0316 31.6211 75.3906 27.7067 75.3906 25.5908C 75.3906 25.0537 75.1058 24.4678 74.5361 23.833C 73.9665 23.182 73.6816 22.7669 73.6816 22.5879C 73.6816 22.002 75.1383 21.709 78.0518 21.709L 78.6377 21.709C 80.6234 21.709 81.6162 22.0264 81.6162 22.6611C 81.6162 23.1494 81.1849 23.6621 80.3223 24.1992C 79.4596 24.7363 78.8574 25.3223 78.5156 25.957C 78.3691 26.2174 77.3519 28.6833 75.4639 33.3545C 73.5758 38.0257 72.2087 41.1833 71.3623 42.8271C 70.5322 44.471 69.6615 45.293 68.75 45.293C 67.8548 45.293 66.9759 44.4141 66.1133 42.6562C 65.2507 40.8984 64.1439 38.0908 62.793 34.2334C 61.4583 30.3597 60.3678 27.6335 59.5215 26.0547C 59.0658 25.2083 58.3984 24.5492 57.5195 24.0771C 56.6406 23.5889 56.2012 23.1087 56.2012 22.6367C 56.2012 22.0508 58.0078 21.7578 61.6211 21.7578L 63.9648 21.8066C 65.1204 21.8066 65.6982 22.124 65.6982 22.7588ZM 95.5322 33.7207C 93.4163 33.7207 91.6992 34.2334 90.3809 35.2588C 89.0625 36.2842 88.4033 37.3991 88.4033 38.6035L 88.4033 39.4336C 88.4359 39.6289 88.4521 39.7917 88.4521 39.9219C 88.4521 40.7031 88.7939 41.3623 89.4775 41.8994C 90.1774 42.4365 90.8691 42.7051 91.5527 42.7051L 92.334 42.7051C 93.4082 42.7051 94.6208 42.2331 95.9717 41.2891C 96.9482 40.6055 97.4365 39.7428 97.4365 38.7012C 97.4691 38.5059 97.4854 38.3594 97.4854 38.2617L 97.5342 37.627L 97.5342 36.8701L 97.5586 36.4062L 97.5586 34.7217C 97.5586 34.0055 97.347 33.6475 96.9238 33.6475L 96.3135 33.6475C 96.0205 33.6963 95.7601 33.7207 95.5322 33.7207ZM 93.457 21.2207L 94.0674 21.2207C 97.4691 21.2207 99.7965 22.2542 101.05 24.3213C 101.815 25.5908 102.197 28.5368 102.197 33.1592C 102.197 37.7816 102.262 40.3125 102.393 40.752C 102.604 41.4844 103.068 41.9727 103.784 42.2168C 104.956 42.6237 105.542 42.9004 105.542 43.0469L 105.542 43.4131C 105.542 43.7386 105.168 44.1211 104.419 44.5605C 103.67 45 102.563 45.2197 101.099 45.2197C 100.252 45.2197 99.4873 44.8535 98.8037 44.1211C 98.1201 43.3724 97.6725 42.998 97.4609 42.998C 97.4447 42.998 96.5413 43.4131 94.751 44.2432C 92.9606 45.0732 91.5527 45.4883 90.5273 45.4883L 89.3799 45.4883C 87.8174 45.4883 86.499 44.943 85.4248 43.8525C 84.3669 42.7458 83.8379 41.5495 83.8379 40.2637L 83.8379 39.6533C 83.8379 37.6025 84.611 35.9587 86.1572 34.7217C 87.2152 33.8753 88.737 33.1755 90.7227 32.6221C 90.9505 32.557 91.8457 32.3617 93.4082 32.0361C 94.9707 31.6943 95.9229 31.4421 96.2646 31.2793C 97.1598 30.8398 97.6074 29.8877 97.6074 28.4229C 97.6074 26.9417 97.2087 25.778 96.4111 24.9316C 95.6136 24.069 94.5231 23.6377 93.1396 23.6377C 91.7562 23.6377 90.5518 24.3945 89.5264 25.9082C 88.501 27.4219 87.4349 28.1787 86.3281 28.1787C 86.084 28.1787 85.7747 27.9997 85.4004 27.6416C 85.026 27.2835 84.8389 26.722 84.8389 25.957C 84.8389 24.7689 85.4736 23.8005 86.7432 23.0518C 88.8102 21.8311 91.0482 21.2207 93.457 21.2207ZM 119.897 42.583C 120.776 43.0387 121.216 43.5596 121.216 44.1455C 121.216 44.7314 120.011 45.0244 117.603 45.0244L 115.015 45.0244L 113.989 44.9756L 112.476 44.9512C 110.539 44.9512 109.57 44.6175 109.57 43.9502C 109.57 43.6084 109.961 43.2178 110.742 42.7783C 111.523 42.3226 112.036 41.7367 112.28 41.0205C 112.541 40.3044 112.671 37.8955 112.671 33.7939C 112.671 29.6761 112.549 27.2021 112.305 26.3721C 112.061 25.5257 111.564 24.8828 110.815 24.4434C 110.083 24.0039 109.717 23.6051 109.717 23.2471C 109.717 23.1006 109.839 22.9378 110.083 22.7588C 111.027 22.0589 112.703 21.709 115.112 21.709C 116.089 21.709 116.748 22.0671 117.09 22.7832C 117.66 23.9714 118.009 24.5654 118.14 24.5654C 118.498 24.5654 118.953 24.3457 119.507 23.9062C 121.265 22.5065 123.071 21.8066 124.927 21.8066C 125.61 21.8066 126.221 22.0915 126.758 22.6611C 127.295 23.2145 127.563 23.8493 127.563 24.5654C 127.563 25.2653 127.376 25.8268 127.002 26.25C 126.628 26.6569 126.164 26.8604 125.61 26.8604C 125.073 26.8604 124.455 26.6325 123.755 26.1768C 123.055 25.721 122.396 25.4932 121.777 25.4932C 120.329 25.4932 119.165 26.5592 118.286 28.6914C 117.765 29.9935 117.505 32.1745 117.505 35.2344C 117.505 38.2943 117.684 40.1742 118.042 40.874C 118.4 41.5576 119.019 42.1273 119.897 42.583ZM 141.333 42.583C 142.212 43.0387 142.651 43.5596 142.651 44.1455C 142.651 44.7314 141.447 45.0244 139.038 45.0244L 136.45 45.0244L 135.425 44.9756L 133.911 44.9512C 131.974 44.9512 131.006 44.6175 131.006 43.9502C 131.006 43.6084 131.396 43.2178 132.178 42.7783C 132.959 42.3226 133.472 41.7367 133.716 41.0205C 133.976 40.3044 134.106 37.8955 134.106 33.7939C 134.106 29.6761 133.984 27.2021 133.74 26.3721C 133.496 25.5257 133 24.8828 132.251 24.4434C 131.519 24.0039 131.152 23.6051 131.152 23.2471C 131.152 23.1006 131.274 22.9378 131.519 22.7588C 132.463 22.0589 134.139 21.709 136.548 21.709C 137.524 21.709 138.184 22.0671 138.525 22.7832C 139.095 23.9714 139.445 24.5654 139.575 24.5654C 139.933 24.5654 140.389 24.3457 140.942 23.9062C 142.7 22.5065 144.507 21.8066 146.362 21.8066C 147.046 21.8066 147.656 22.0915 148.193 22.6611C 148.73 23.2145 148.999 23.8493 148.999 24.5654C 148.999 25.2653 148.812 25.8268 148.438 26.25C 148.063 26.6569 147.599 26.8604 147.046 26.8604C 146.509 26.8604 145.89 26.6325 145.19 26.1768C 144.491 25.721 143.831 25.4932 143.213 25.4932C 141.764 25.4932 140.601 26.5592 139.722 28.6914C 139.201 29.9935 138.94 32.1745 138.94 35.2344C 138.94 38.2943 139.119 40.1742 139.478 40.874C 139.836 41.5576 140.454 42.1273 141.333 42.583ZM 163.33 23.3447L 162.817 23.3447C 161.06 23.3447 159.57 24.2887 158.35 26.1768C 157.389 27.6579 156.909 29.8796 156.909 32.8418L 156.909 33.1348L 156.934 33.4521C 156.934 37.9443 158.138 40.9798 160.547 42.5586C 161.41 43.112 162.378 43.3887 163.452 43.3887L 163.721 43.3643C 165.462 43.3643 166.862 42.5423 167.92 40.8984C 168.978 39.2546 169.507 37.1224 169.507 34.502L 169.507 32.9883C 169.507 30.1562 168.921 27.8451 167.749 26.0547C 166.593 24.248 165.12 23.3447 163.33 23.3447ZM 174.707 32.5977L 174.707 33.8184C 174.707 35.3158 174.398 36.8457 173.779 38.4082C 172.591 41.4518 170.532 43.5433 167.603 44.6826C 166.187 45.236 164.827 45.5127 163.525 45.5127L 163.135 45.5127L 162.72 45.4883C 159.66 45.4883 157.096 44.4548 155.029 42.3877C 154.085 41.4437 153.337 40.1823 152.783 38.6035C 152.246 37.0247 151.978 35.5436 151.978 34.1602L 151.978 32.9639C 151.978 31.4339 152.279 29.8958 152.881 28.3496C 153.499 26.8034 154.281 25.5339 155.225 24.541C 156.185 23.5319 157.389 22.7344 158.838 22.1484C 160.286 21.5462 161.686 21.2451 163.037 21.2451L 164.233 21.2451C 167.049 21.2451 169.499 22.2868 171.582 24.3701C 172.477 25.2653 173.218 26.4697 173.804 27.9834C 174.406 29.4971 174.707 31.0352 174.707 32.5977ZM 299.927 36.2598C 299.927 39.0267 300.228 40.7845 300.83 41.5332C 301.742 42.6725 303.19 43.2422 305.176 43.2422L 305.981 43.2422C 306.6 43.2422 307.332 43.0062 308.179 42.5342C 309.041 42.0622 309.733 41.3867 310.254 40.5078C 311.328 38.6849 311.865 36.4551 311.865 33.8184L 311.865 33.5254L 311.841 33.2324C 311.841 30.4167 311.296 28.1787 310.205 26.5186C 309.131 24.8421 307.699 24.0039 305.908 24.0039L 305.664 24.0039C 304.655 24.0039 303.654 24.2806 302.661 24.834C 301.668 25.3711 300.968 26.014 300.562 26.7627C 300.155 27.4951 299.951 30.026 299.951 34.3555L 299.927 35.1611L 299.927 36.2598ZM 296.875 44.4629C 295.605 44.4629 294.971 43.6328 294.971 41.9727C 294.971 41.7773 295.052 41.1426 295.215 40.0684C 295.378 38.9779 295.459 37.1956 295.459 34.7217L 295.459 27.1533L 295.483 25.9326L 295.483 21.6846L 295.459 20.4883L 295.459 19.292L 295.41 17.5098C 295.394 17.1191 295.386 16.4437 295.386 15.4834C 295.386 14.5231 295.223 13.7337 294.897 13.1152C 294.735 12.806 294.263 12.4805 293.481 12.1387C 292.7 11.7806 292.31 11.4225 292.31 11.0645C 292.31 10.7064 292.505 10.4297 292.896 10.2344C 293.872 9.72982 295.459 9.47754 297.656 9.47754C 298.747 9.47754 299.414 9.96582 299.658 10.9424C 299.837 11.6423 299.927 13.929 299.927 17.8027C 299.927 21.6602 300.252 23.5889 300.903 23.5889C 301.001 23.5889 301.807 23.3122 303.32 22.7588C 304.85 22.2054 306.315 21.9287 307.715 21.9287C 310.433 21.9287 312.622 22.9948 314.282 25.127C 315.959 27.2591 316.797 29.8145 316.797 32.793L 316.797 33.4277C 316.797 35.1367 316.52 36.7643 315.967 38.3105C 314.925 41.224 313.127 43.2422 310.571 44.3652C 309.139 45 307.666 45.3174 306.152 45.3174L 305.566 45.3174C 304.834 45.3174 303.776 45.1302 302.393 44.7559C 301.025 44.3815 299.829 44.1943 298.804 44.1943C 297.664 44.3734 297.021 44.4629 296.875 44.4629ZM 331.958 42.583C 332.837 43.0387 333.276 43.5596 333.276 44.1455C 333.276 44.7314 332.072 45.0244 329.663 45.0244L 327.075 45.0244L 326.05 44.9756L 324.536 44.9512C 322.599 44.9512 321.631 44.6175 321.631 43.9502C 321.631 43.6084 322.021 43.2178 322.803 42.7783C 323.584 42.3226 324.097 41.7367 324.341 41.0205C 324.601 40.3044 324.731 37.8955 324.731 33.7939C 324.731 29.6761 324.609 27.2021 324.365 26.3721C 324.121 25.5257 323.625 24.8828 322.876 24.4434C 322.144 24.0039 321.777 23.6051 321.777 23.2471C 321.777 23.1006 321.899 22.9378 322.144 22.7588C 323.088 22.0589 324.764 21.709 327.173 21.709C 328.149 21.709 328.809 22.0671 329.15 22.7832C 329.72 23.9714 330.07 24.5654 330.2 24.5654C 330.558 24.5654 331.014 24.3457 331.567 23.9062C 333.325 22.5065 335.132 21.8066 336.987 21.8066C 337.671 21.8066 338.281 22.0915 338.818 22.6611C 339.355 23.2145 339.624 23.8493 339.624 24.5654C 339.624 25.2653 339.437 25.8268 339.062 26.25C 338.688 26.6569 338.224 26.8604 337.671 26.8604C 337.134 26.8604 336.515 26.6325 335.815 26.1768C 335.116 25.721 334.456 25.4932 333.838 25.4932C 332.389 25.4932 331.226 26.5592 330.347 28.6914C 329.826 29.9935 329.565 32.1745 329.565 35.2344C 329.565 38.2943 329.744 40.1742 330.103 40.874C 330.461 41.5576 331.079 42.1273 331.958 42.583ZM 349.219 31.1572L 349.854 31.1572L 354.517 30.8398C 355.086 30.7585 355.501 30.7178 355.762 30.7178C 356.836 30.7178 357.585 30.5062 358.008 30.083C 358.187 29.904 358.276 29.4808 358.276 28.8135C 358.276 27.2673 357.821 25.9896 356.909 24.9805C 356.014 23.9551 354.932 23.4424 353.662 23.4424L 353.174 23.4424C 351.709 23.4424 350.399 24.0771 349.243 25.3467C 348.104 26.6162 347.534 28.0485 347.534 29.6436L 347.485 29.9609L 347.485 30.1074C 347.485 30.7422 347.827 31.0596 348.511 31.0596C 348.836 31.1247 349.072 31.1572 349.219 31.1572ZM 347.339 35.2588C 347.339 37.5212 348.063 39.3034 349.512 40.6055C 350.96 41.9076 352.865 42.5586 355.225 42.5586C 356.201 42.5586 357.487 42.1924 359.082 41.46C 360.677 40.7275 361.499 40.3613 361.548 40.3613C 362.118 40.3613 362.402 40.6299 362.402 41.167C 362.402 42.1761 361.271 43.234 359.009 44.3408C 357.463 45.0895 355.811 45.4639 354.053 45.4639L 353.491 45.4639C 350.041 45.4639 347.339 44.3896 345.386 42.2412C 343.433 40.0765 342.456 37.2607 342.456 33.7939L 342.456 33.2324C 342.456 33.1999 342.456 33.1592 342.456 33.1104C 342.456 31.6781 342.741 30.2376 343.311 28.7891C 344.515 25.6803 346.427 23.54 349.048 22.3682C 350.692 21.6357 352.197 21.2695 353.564 21.2695L 354.639 21.2695C 356.771 21.2695 358.626 21.9531 360.205 23.3203C 361.051 24.0527 361.711 24.9805 362.183 26.1035C 362.655 27.2266 362.891 28.2194 362.891 29.082L 362.891 29.5947C 362.891 30.8317 362.386 31.6618 361.377 32.085C 360.791 32.3291 358.659 32.5814 354.98 32.8418C 351.318 33.1022 349.259 33.2975 348.804 33.4277C 347.827 33.7044 347.339 34.3148 347.339 35.2588ZM 400.342 21.8555C 401.855 21.8555 402.612 22.124 402.612 22.6611L 402.612 23.0762C 402.612 23.1087 402.311 23.6296 401.709 24.6387C 401.107 25.6315 400.586 26.6325 400.146 27.6416C 399.723 28.6507 398.844 31.1979 397.51 35.2832C 396.191 39.3685 395.231 41.932 394.629 42.9736C 394.043 44.0153 393.262 44.5361 392.285 44.5361C 391.618 44.5361 390.934 43.8932 390.234 42.6074C 389.535 41.3216 388.534 38.9941 387.231 35.625C 385.946 32.2396 385.14 30.5469 384.814 30.5469C 384.652 30.5469 383.781 32.3861 382.202 36.0645C 380.64 39.7266 379.704 41.8424 379.395 42.4121C 378.695 43.6816 378.003 44.3164 377.319 44.3164C 376.392 44.3164 375.529 43.4538 374.731 41.7285C 374.276 40.752 373.804 39.4661 373.315 37.8711C 371.541 32.0931 369.743 27.7474 367.92 24.834C 367.383 23.9876 367.114 23.4342 367.114 23.1738C 367.114 22.2461 368.099 21.7822 370.068 21.7822C 372.054 21.7822 373.315 21.9613 373.853 22.3193C 374.39 22.6774 374.658 23.3366 374.658 24.2969L 374.634 24.9316L 374.561 25.6396C 374.561 27.5439 375.122 30.0586 376.245 33.1836C 377.368 36.3086 378.263 37.8711 378.931 37.8711C 379.468 37.8711 380.143 36.6992 380.957 34.3555C 381.771 31.9954 382.178 30.026 382.178 28.4473C 382.178 27.9102 382.08 27.2103 381.885 26.3477C 381.706 25.485 381.616 24.8665 381.616 24.4922C 381.616 24.1178 381.958 23.654 382.642 23.1006C 383.341 22.5309 384.294 22.2461 385.498 22.2461C 386.719 22.2461 387.728 22.7181 388.525 23.6621C 388.932 24.1341 389.136 24.8096 389.136 25.6885L 389.087 26.4209L 389.062 27.1533C 389.062 28.3903 389.868 31.1491 391.479 35.4297C 392.017 36.862 392.562 37.5781 393.115 37.5781C 393.815 37.5781 394.678 36.0889 395.703 33.1104C 396.745 30.1318 397.266 27.7962 397.266 26.1035L 396.68 23.54C 396.68 22.417 397.9 21.8555 400.342 21.8555ZM 408.887 13.8477L 408.887 13.1641C 408.919 13.0339 408.936 12.8467 408.936 12.6025C 408.936 12.3421 409.204 11.9434 409.741 11.4062C 410.278 10.8691 410.824 10.6006 411.377 10.6006L 411.865 10.5273L 412.256 10.5273C 412.923 10.5273 413.542 10.7715 414.111 11.2598C 414.697 11.7318 414.99 12.2607 414.99 12.8467L 415.063 13.4326L 415.063 13.6523L 414.966 14.2139C 414.966 14.7021 414.665 15.1904 414.062 15.6787C 413.477 16.167 412.939 16.4111 412.451 16.4111L 411.865 16.4844L 411.768 16.4844L 411.67 16.46L 411.475 16.46C 411.344 16.4274 411.247 16.4111 411.182 16.4111C 410.71 16.4111 410.205 16.1507 409.668 15.6299C 409.147 15.0928 408.887 14.4987 408.887 13.8477ZM 408.35 45.1709C 407.275 45.1709 406.738 44.8454 406.738 44.1943C 406.738 43.7712 407.161 43.3724 408.008 42.998C 408.854 42.6074 409.375 42.054 409.57 41.3379C 409.782 40.6055 409.888 38.0664 409.888 33.7207L 409.912 32.9639L 409.912 32.207L 409.937 31.4502L 409.937 29.9365L 409.863 27.6904C 409.863 26.3883 409.717 25.5664 409.424 25.2246C 409.147 24.8828 408.594 24.598 407.764 24.3701C 406.934 24.1423 406.519 23.8167 406.519 23.3936C 406.519 23.0518 406.698 22.7751 407.056 22.5635C 408.195 21.8799 410.059 21.5381 412.646 21.5381C 413.59 21.5381 414.144 21.8717 414.307 22.5391C 414.388 22.8809 414.429 25.9814 414.429 31.8408C 414.429 37.7002 414.518 40.9473 414.697 41.582C 414.876 42.2005 415.422 42.6969 416.333 43.0713C 417.261 43.4294 417.725 43.7549 417.725 44.0479L 417.725 44.3164C 417.725 44.7884 417.017 45.0244 415.601 45.0244C 415.112 45.057 414.754 45.0732 414.526 45.0732L 413.428 45.0977L 412.354 45.0977L 409.814 45.1709L 408.35 45.1709ZM 431.86 43.9258C 431.86 44.528 430.811 44.8291 428.711 44.8291L 426.465 44.7559C 425.977 44.7396 425.244 44.7314 424.268 44.7314C 422.754 44.7314 421.997 44.3408 421.997 43.5596C 421.997 43.2992 422.404 42.9736 423.218 42.583C 424.048 42.1924 424.561 41.7611 424.756 41.2891C 424.967 40.8008 425.073 39.4987 425.073 37.3828L 425.073 33.0859L 425.024 31.5723L 425.024 28.8135C 425.024 27.4788 424.927 26.5186 424.731 25.9326C 424.552 25.3304 424.105 24.8421 423.389 24.4678C 422.673 24.0771 422.314 23.8005 422.314 23.6377C 422.314 23.1494 422.575 22.7832 423.096 22.5391C 424.137 22.0671 425.562 21.8311 427.368 21.8311C 428.296 21.8311 428.931 22.1891 429.272 22.9053C 429.826 24.0283 430.135 24.5898 430.2 24.5898C 430.249 24.5898 430.599 24.362 431.25 23.9062C 433.512 22.2786 435.555 21.4567 437.378 21.4404L 438.135 21.4404C 441.032 21.4567 443.066 22.7181 444.238 25.2246C 444.824 26.4941 445.117 30.2295 445.117 36.4307C 445.117 39.458 445.223 41.1833 445.435 41.6064C 445.662 42.0296 446.191 42.4365 447.021 42.8271C 447.868 43.2178 448.291 43.5596 448.291 43.8525C 448.291 44.5361 446.061 44.8779 441.602 44.8779L 440.869 44.8779C 439.437 44.8779 438.721 44.6582 438.721 44.2188C 438.721 43.7793 438.973 43.3236 439.478 42.8516C 439.982 42.3796 440.283 42.0052 440.381 41.7285C 440.495 41.4518 440.552 40.7845 440.552 39.7266C 440.552 38.6686 440.544 37.8874 440.527 37.3828L 440.479 35.8691L 440.479 32.7197C 440.479 29.3669 440.137 27.1208 439.453 25.9814C 438.786 24.8258 437.573 24.248 435.815 24.248C 434.937 24.248 434.009 24.5085 433.032 25.0293C 432.056 25.5339 431.266 26.2093 430.664 27.0557C 430.062 27.902 429.761 30.0505 429.761 33.501L 429.614 38.0908C 429.614 39.6533 429.728 40.7357 429.956 41.3379C 430.184 41.9238 430.558 42.4528 431.079 42.9248C 431.6 43.3968 431.86 43.7305 431.86 43.9258ZM 466.553 29.9609L 466.504 28.96C 466.504 27.2184 465.967 25.6315 464.893 24.1992C 464.128 23.1738 463.208 22.6611 462.134 22.6611L 461.304 22.6611C 460.311 22.6611 459.375 23.2389 458.496 24.3945C 457.633 25.5501 457.202 26.9906 457.202 28.7158L 457.202 29.79L 457.227 30.0098C 457.227 31.5072 457.568 32.8011 458.252 33.8916C 458.952 34.9658 460.05 35.5029 461.548 35.5029L 462.134 35.5029C 463.289 35.5029 464.307 35.1042 465.186 34.3066C 466.064 33.4928 466.504 32.4919 466.504 31.3037L 466.528 31.1328L 466.553 30.9375L 466.577 30.1807L 466.553 29.9609ZM 459.668 44.3164C 458.415 44.3164 457.454 44.6257 456.787 45.2441C 455.713 46.237 455.176 47.3519 455.176 48.5889L 455.176 49.0283L 455.2 49.2236C 455.2 50.4606 455.778 51.5267 456.934 52.4219C 458.105 53.3171 459.627 53.7646 461.499 53.7646L 462.842 53.7646C 463.167 53.7321 463.395 53.7158 463.525 53.7158C 465.446 53.7158 467.065 53.1543 468.384 52.0312C 469.702 50.9245 470.361 49.7282 470.361 48.4424L 470.361 48.2471C 470.361 47.1729 469.922 46.3021 469.043 45.6348C 468.164 44.9837 467 44.6582 465.552 44.6582C 464.966 44.5931 464.526 44.5605 464.233 44.5605L 463.794 44.5117L 461.157 44.3652L 460.938 44.3408L 460.083 44.3164L 459.668 44.3164ZM 464.38 21.2939C 464.836 21.3102 465.177 21.3184 465.405 21.3184C 465.633 21.3184 466.398 21.3428 467.7 21.3916L 468.335 21.416L 469.556 21.4893C 469.832 21.4893 470.264 21.473 470.85 21.4404L 472.119 21.3672C 473.763 21.3672 474.585 21.7171 474.585 22.417C 474.585 23.3447 473.934 23.8981 472.632 24.0771C 471.346 24.2399 470.703 24.6712 470.703 25.3711L 470.825 25.9082L 471.191 27.1777C 471.37 27.9264 471.46 28.7972 471.46 29.79C 471.46 30.7178 471.191 31.6862 470.654 32.6953C 469.141 35.6087 466.195 37.1631 461.816 37.3584C 459.977 37.4561 458.854 37.6025 458.447 37.7979C 457.682 38.1885 457.3 38.7826 457.3 39.5801C 457.3 40.3776 458.016 40.931 459.448 41.2402C 459.839 41.3379 461.507 41.4844 464.453 41.6797C 467.383 41.875 469.434 42.2331 470.605 42.7539C 472.819 43.763 473.926 45.4883 473.926 47.9297C 473.926 50.3874 472.77 52.4056 470.459 53.9844C 468.115 55.5632 465.348 56.3525 462.158 56.3525C 457.52 56.3525 454.411 55.3109 452.832 53.2275C 452.165 52.3486 451.831 51.3151 451.831 50.127C 451.831 48.9551 452.393 47.7425 453.516 46.4893C 454.639 45.236 455.2 44.471 455.2 44.1943L 455.054 43.7793L 454.199 42.8516C 453.776 42.2656 453.564 41.6064 453.564 40.874C 453.564 40.1416 453.914 39.279 454.614 38.2861C 455.33 37.2933 455.688 36.6341 455.688 36.3086C 455.705 36.0156 455.501 35.5762 455.078 34.9902C 453.711 33.1022 453.027 31.2386 453.027 29.3994C 453.027 28.3089 453.304 27.2184 453.857 26.1279C 455.501 22.889 458.781 21.2695 463.696 21.2695L 464.38 21.2939Z"/>
<path id="path1_fill" d="M -2.68221e-07 20.5L 9 11.3889C 11.25 9.11111 11.25 9.11111 11.25 5.43064e-07L 2.25 9.11111C 1.67638e-07 11.3889 -2.68221e-07 11.3889 -2.68221e-07 20.5Z"/>
<path id="path2_fill" d="M 11.25 0L 2.25 9.11111C 1.67638e-07 11.3889 -2.68221e-07 11.3889 -2.68221e-07 20.5L 9 11.3889C 11.25 9.11111 11.25 9.11111 11.25 0Z"/>
<path id="path3_fill" d="M 11.25 20.5C 11.25 11.3889 11.25 11.3889 9 9.11111L 0 5.43064e-07C 0 9.11111 0 9.11111 2.25 11.3889L 11.25 20.5Z"/>
<path id="path4_fill" d="M -2.68221e-07 20.5L 9 11.3889C 11.25 9.11111 11.25 9.11111 11.25 1.08613e-06L 2.25 9.11111C 1.67638e-07 11.3889 -2.68221e-07 11.3889 -2.68221e-07 20.5Z"/>
<path id="path5_fill" d="M 11.25 20.5C 11.25 11.3889 11.25 11.3889 9 9.11111L 0 1.08613e-06C 0 9.11111 0 9.11111 2.25 11.3889L 11.25 20.5Z"/>
<path id="path6_fill" d="M -2.68221e-07 20.5L 9 11.3889C 11.25 9.11111 11.25 9.11111 11.25 -1.08613e-06L 2.25 9.11111C 1.67638e-07 11.3889 -2.68221e-07 11.3889 -2.68221e-07 20.5Z"/>
<path id="path7_fill" d="M 11.25 20.5C 11.25 11.3889 11.25 11.3889 9 9.11111L 0 -1.08613e-06C 0 9.11111 0 9.11111 2.25 11.3889L 11.25 20.5Z"/>
<path id="path8_fill" d="M 11.25 20.5C 11.25 11.3889 11.25 11.3889 9 9.11111L 0 0C 0 9.11111 0 9.11111 2.25 11.3889L 11.25 20.5Z"/>
<path id="path9_fill" d="M 13.5 13.6667L 0 2.17226e-06C 0 9.11111 0 9.11111 2.25 11.3889L 11.25 20.5L 11.25 27.3333L 15.75 27.3333L 15.75 20.5L 24.75 11.3889C 27 9.11111 27 9.11111 27 2.17226e-06L 13.5 13.6667Z"/>
</defs>
</svg>
